<svg xmlns="http://www.w3.org/2000/svg" width="1600" height="769.253" viewBox="0 0 1600 769.253">
  <g id="Bg" transform="translate(0 1.24)">
    <path id="_4" data-name="4" d="M0-.99c533.3.876,1067,15.237,1599.876,0q.006,384.476,0,768.981c-72.87-123.144-139.669-179.523-208.091-211.063-67.933-30.877-135.374-41.568-202.5-48.516-134.279-13.88-267.214-7.846-399.424,13.6C723.758,533.2,657.8,546.835,591.961,568.05c-65.837,20.755-131.573,49.143-197.226,79.071-65.659,30.149-131.165,61.056-196.741,83.852-32.8,11.415-65.625,20.837-98.588,27.318-16.482,3.241-33,5.749-49.562,7.405q-12.423,1.242-24.883,1.831-6.23.291-12.471.409T0,767.991V-.99Z" fill="#1e62ee" opacity="0.839"/>
    <path id="_3" data-name="3" d="M0-.99c533.362.889,1066.962,15.154,1600,0q0,384.489,0,768.981c-75.166-158.1-151.584-219.457-223.02-259.018-71.959-37.46-141.564-51.6-209.861-60.416-136.561-17.036-267.745-7.582-396.589,19.433-64.4,14.018-128.238,31.443-191.68,56.77-63.463,24.908-126.493,58.051-189.811,93.769-63.3,35.827-127.008,73.6-191.8,102.238-32.385,14.313-65.023,26.315-97.9,34.626a425.816,425.816,0,0,1-49.5,9.544q-12.418,1.614-24.878,2.4-6.23.386-12.471.553T0,767.991V-.99Z" fill="#1e62ee" opacity="0.839"/>
    <path id="_2" data-name="2" d="M0-1.24H1600V767C1010.409-126,533.333,767,0,767Z" fill="#1f62ee" opacity="0.722"/>
  </g>
</svg>
